<svg width="47" height="24" viewBox="0 0 47 24" fill="none" xmlns="http://www.w3.org/2000/svg">
<path d="M15.2869 2.53149L13.2056 8.86172L11.1319 2.53295L10.7935 1.5H9.70651H5H2.89397L3.5824 3.49033L9.46252 20.4903L9.81175 21.5H10.8801H15.5261H16.5916L16.9425 20.4939L22.871 3.49393L23.5663 1.5H21.4546H16.7118H15.626L15.2869 2.53149ZM30.9739 5.71605V3V1.5H29.4739H25.2271H23.7271V3V20V21.5H25.2271H29.4739H30.9739V20V16.2049L33.6764 20.7648L34.1122 21.5H34.9668H40H42.713L41.2704 19.2024L35.8813 10.6193L41.1761 3.93105L43.1007 1.5H40H34.749H33.9757L33.5271 2.13L30.9739 5.71605Z" stroke="#F5F5F5" stroke-width="3"/>
</svg>
