<svg width="62" height="36" viewBox="0 0 62 36" fill="none" xmlns="http://www.w3.org/2000/svg">
<mask id="path-1-outside-1_8_113" maskUnits="userSpaceOnUse" x="0" y="0" width="62" height="36" fill="black">
<rect fill="white" width="62" height="36"/>
<path d="M27.4753 8.8517H18.6867V32.5992H11.6277V8.8517H3V3.42084H27.4753V8.8517Z"/>
<path d="M58 28.992C56.914 30.1944 55.3252 31.163 53.2337 31.8978C51.1421 32.6326 48.8494 33 46.3556 33C42.5211 33 39.4575 31.831 37.1648 29.493C34.8722 27.155 33.6454 23.9018 33.4845 19.7335L33.4644 17.2084C33.4644 14.336 33.9739 11.831 34.9928 9.69339C36.0118 7.54242 37.4665 5.89245 39.357 4.74349C41.2608 3.58116 43.4596 3 45.9534 3C49.6002 3 52.4292 3.835 54.4403 5.50501C56.4648 7.16166 57.6447 9.63995 57.9799 12.9399H51.1823C50.941 11.31 50.4181 10.1476 49.6136 9.45291C48.8092 8.75818 47.6696 8.41082 46.1947 8.41082C44.425 8.41082 43.0574 9.15898 42.0921 10.6553C41.1267 12.1516 40.6374 14.2892 40.624 17.0681V18.8317C40.624 21.7442 41.12 23.9352 42.1122 25.4048C43.1177 26.8611 44.6931 27.5892 46.8383 27.5892C48.6751 27.5892 50.0427 27.1817 50.941 26.3667V21.8377H46.0339V17.008H58V28.992Z"/>
</mask>
<path d="M27.4753 8.8517H18.6867V32.5992H11.6277V8.8517H3V3.42084H27.4753V8.8517Z" stroke="#F5F5F5" stroke-width="6" mask="url(#path-1-outside-1_8_113)"/>
<path d="M58 28.992C56.914 30.1944 55.3252 31.163 53.2337 31.8978C51.1421 32.6326 48.8494 33 46.3556 33C42.5211 33 39.4575 31.831 37.1648 29.493C34.8722 27.155 33.6454 23.9018 33.4845 19.7335L33.4644 17.2084C33.4644 14.336 33.9739 11.831 34.9928 9.69339C36.0118 7.54242 37.4665 5.89245 39.357 4.74349C41.2608 3.58116 43.4596 3 45.9534 3C49.6002 3 52.4292 3.835 54.4403 5.50501C56.4648 7.16166 57.6447 9.63995 57.9799 12.9399H51.1823C50.941 11.31 50.4181 10.1476 49.6136 9.45291C48.8092 8.75818 47.6696 8.41082 46.1947 8.41082C44.425 8.41082 43.0574 9.15898 42.0921 10.6553C41.1267 12.1516 40.6374 14.2892 40.624 17.0681V18.8317C40.624 21.7442 41.12 23.9352 42.1122 25.4048C43.1177 26.8611 44.6931 27.5892 46.8383 27.5892C48.6751 27.5892 50.0427 27.1817 50.941 26.3667V21.8377H46.0339V17.008H58V28.992Z" stroke="#F5F5F5" stroke-width="6" mask="url(#path-1-outside-1_8_113)"/>
</svg>
