<svg width="39" height="24" viewBox="0 0 39 24" fill="none" xmlns="http://www.w3.org/2000/svg">
<path d="M17.2402 8.01102H18.7402V6.51102V3.25251V1.75251H17.2402H3H1.5V3.25251V6.51102V8.01102H3H6.51975V20.7595V22.2595H8.01975H12.1268H13.6268V20.7595V8.01102H17.2402ZM36.1284 19.5835L36.5 19.1592V18.5952V11.4048V10.4639H36.6433L36.4811 8.8169C36.2595 6.56781 35.4538 4.67317 33.9005 3.36018C32.3717 2.05314 30.3338 1.5 27.9911 1.5C26.2896 1.5 24.7274 1.91235 23.3552 2.77591C21.9857 3.63466 20.9543 4.85939 20.2517 6.38824C19.5504 7.90616 19.2247 9.6317 19.2247 11.5251H19.2247L19.2248 11.5366L19.2365 13.0517L19.2367 13.0739L19.2375 13.0962C19.3407 15.8527 20.1385 18.1919 21.7907 19.9294C23.4517 21.6762 25.6516 22.5 28.2251 22.5C29.8293 22.5 31.3385 22.2559 32.7378 21.749C34.113 21.2507 35.2815 20.5505 36.1284 19.5835ZM29.5486 9.17711L29.6531 9.90481H28.0379H26.5379V11.4048V14.3026V14.3078C26.4458 13.824 26.3903 13.2274 26.3903 12.499V11.4443C26.3979 9.91161 26.6648 8.95035 27.0161 8.38872C27.3131 7.91402 27.6364 7.74649 28.1315 7.74649C28.7583 7.74649 29.017 7.89745 29.1231 7.99191C29.2117 8.07087 29.4311 8.3586 29.5486 9.17711ZM28.5059 16.2535C27.8068 16.2535 27.4143 16.0735 27.1569 15.8026H28.0379H29.3929V16.1567C29.1831 16.2129 28.8962 16.2535 28.5059 16.2535Z" stroke="#F5F5F5" stroke-width="3"/>
</svg>
