<svg width="60" height="32" viewBox="0 0 60 32" fill="none" xmlns="http://www.w3.org/2000/svg">
<path d="M19.6158 2.60173L16.2525 14.8141L12.9012 2.603L12.5984 1.5H11.4546H5H2.91358L3.57812 3.47776L11.6423 27.4778L11.9858 28.5H13.0642H19.4358H20.5114L20.8565 27.4813L28.9871 3.48129L29.6583 1.5H27.5664H21.0619H19.9192L19.6158 2.60173ZM40.0642 8.65413V3V1.5H38.5642H32.74H31.24V3V27V28.5H32.74H38.5642H40.0642V27V21.2542L40.675 20.5884L44.7974 27.7484L45.2301 28.5H46.0973H53H55.6719L54.2806 26.2189L46.6531 13.7135L54.189 3.91443L56.0459 1.5H53H45.7987H45.0123L44.565 2.14673L40.0642 8.65413Z" stroke="#F5F5F5" stroke-width="3"/>
</svg>
