<svg width="237" height="35" viewBox="0 0 237 35" fill="none" xmlns="http://www.w3.org/2000/svg">
<mask id="path-1-outside-1_821_6" maskUnits="userSpaceOnUse" x="0" y="0" width="237" height="35" fill="black">
<rect fill="white" width="237" height="35"/>
<path d="M26.7056 22.0621C26.6148 24.0252 26.0833 25.7622 25.1109 27.2732C24.1386 28.7713 22.7708 29.9336 21.0077 30.7602C19.2575 31.5867 17.2545 32 14.9986 32C11.2778 32 8.34785 30.7925 6.20871 28.3774C4.06957 25.9624 3 22.5529 3 18.149V16.7542C3 13.9904 3.47969 11.5754 4.43906 9.50902C5.4114 7.42975 6.80508 5.82832 8.62011 4.70474C10.4351 3.56825 12.5354 3 14.9208 3C18.3564 3 21.1179 3.90403 23.2052 5.71209C25.2924 7.50724 26.4787 9.98686 26.7639 13.151H19.9576C19.9057 11.4333 19.4714 10.2 18.6546 9.4509C17.8379 8.70185 16.5933 8.32732 14.9208 8.32732C13.2225 8.32732 11.9779 8.96014 11.1871 10.2258C10.3962 11.4914 9.98138 13.5126 9.94248 16.2892V18.2846C9.94248 21.2937 10.3185 23.444 11.0704 24.7355C11.8353 26.0269 13.1447 26.6727 14.9986 26.6727C16.5673 26.6727 17.7666 26.3046 18.5963 25.5685C19.426 24.8323 19.8668 23.6635 19.9187 22.0621H26.7056ZM57.8942 18.0908C57.8942 20.8417 57.3821 23.2761 56.358 25.3941C55.3338 27.5121 53.8753 29.1458 51.9824 30.2953C50.1026 31.4318 47.957 32 45.5456 32C43.1342 32 40.995 31.4511 39.1281 30.3534C37.2613 29.2427 35.8028 27.6607 34.7526 25.6072C33.7155 23.5538 33.171 21.1968 33.1191 18.5364V16.9479C33.1191 14.1841 33.6247 11.7497 34.636 9.64462C35.6601 7.52661 37.1186 5.8929 39.0115 4.74349C40.9172 3.59408 43.0823 3.01937 45.5067 3.01937C47.9051 3.01937 50.0442 3.58762 51.9241 4.72411C53.8039 5.86061 55.2625 7.48141 56.2996 9.58651C57.3497 11.6787 57.8813 14.0808 57.8942 16.7929V18.0908ZM50.9518 16.9092C50.9518 14.1067 50.4786 11.9822 49.5321 10.5357C48.5987 9.07637 47.2569 8.34669 45.5067 8.34669C42.084 8.34669 40.2755 10.9038 40.081 16.018L40.0616 18.0908C40.0616 20.8546 40.5218 22.9791 41.4423 24.4643C42.3628 25.9495 43.7305 26.692 45.5456 26.692C47.2698 26.692 48.5987 25.9624 49.5321 24.503C50.4656 23.0436 50.9388 20.945 50.9518 18.2071V16.9092ZM89.044 31.6126H82.2571L72.2226 14.0615V31.6126H65.3968V3.40681H72.2226L82.2377 20.9579V3.40681H89.044V31.6126ZM118.988 8.65665H110.49V31.6126H103.664V8.65665H95.3214V3.40681H118.988V8.65665ZM139.617 26.3434H130.263L128.63 31.6126H121.337L131.722 3.40681H138.139L148.602 31.6126H141.27L139.617 26.3434ZM131.897 21.0935H137.984L134.931 11.3106L131.897 21.0935ZM177.146 22.0621C177.055 24.0252 176.523 25.7622 175.551 27.2732C174.579 28.7713 173.211 29.9336 171.448 30.7602C169.697 31.5867 167.694 32 165.439 32C161.718 32 158.788 30.7925 156.649 28.3774C154.51 25.9624 153.44 22.5529 153.44 18.149V16.7542C153.44 13.9904 153.92 11.5754 154.879 9.50902C155.851 7.42975 157.245 5.82832 159.06 4.70474C160.875 3.56825 162.975 3 165.361 3C168.796 3 171.558 3.90403 173.645 5.71209C175.732 7.50724 176.919 9.98686 177.204 13.151H170.398C170.346 11.4333 169.911 10.2 169.095 9.4509C168.278 8.70185 167.033 8.32732 165.361 8.32732C163.662 8.32732 162.418 8.96014 161.627 10.2258C160.836 11.4914 160.421 13.5126 160.382 16.2892V18.2846C160.382 21.2937 160.758 23.444 161.51 24.7355C162.275 26.0269 163.585 26.6727 165.439 26.6727C167.007 26.6727 168.207 26.3046 169.036 25.5685C169.866 24.8323 170.307 23.6635 170.359 22.0621H177.146ZM206.001 8.65665H197.502V31.6126H190.677V8.65665H182.334V3.40681H206.001V8.65665ZM227.174 24.1156C227.174 23.1211 226.818 22.3462 226.105 21.7909C225.405 21.2356 224.166 20.6609 222.39 20.0668C220.614 19.4727 219.162 18.898 218.034 18.3427C214.365 16.5475 212.531 14.0808 212.531 10.9426C212.531 9.37987 212.985 8.00445 213.892 6.8163C214.813 5.61523 216.109 4.68537 217.781 4.02672C219.454 3.35515 221.334 3.01937 223.421 3.01937C225.456 3.01937 227.278 3.38098 228.886 4.10421C230.506 4.82743 231.764 5.86061 232.658 7.20374C233.553 8.53396 234 10.0579 234 11.7756H227.194C227.194 10.6261 226.837 9.73503 226.124 9.1022C225.424 8.46938 224.471 8.15297 223.265 8.15297C222.047 8.15297 221.081 8.42418 220.368 8.9666C219.668 9.4961 219.318 10.1741 219.318 11.0007C219.318 11.7239 219.707 12.3825 220.485 12.9766C221.262 13.5578 222.63 14.1648 224.588 14.7976C226.545 15.4175 228.153 16.0891 229.411 16.8123C232.47 18.5687 234 20.9902 234 24.0768C234 26.5435 233.067 28.4807 231.2 29.8884C229.333 31.2961 226.772 32 223.518 32C221.223 32 219.143 31.5932 217.276 30.7796C215.422 29.953 214.022 28.8294 213.075 27.4088C212.142 25.9753 211.675 24.3287 211.675 22.4689H218.52C218.52 23.98 218.909 25.0971 219.687 25.8203C220.478 26.5306 221.755 26.8858 223.518 26.8858C224.646 26.8858 225.534 26.6468 226.182 26.169C226.844 25.6782 227.174 24.9938 227.174 24.1156Z"/>
</mask>
<path d="M26.7056 22.0621C26.6148 24.0252 26.0833 25.7622 25.1109 27.2732C24.1386 28.7713 22.7708 29.9336 21.0077 30.7602C19.2575 31.5867 17.2545 32 14.9986 32C11.2778 32 8.34785 30.7925 6.20871 28.3774C4.06957 25.9624 3 22.5529 3 18.149V16.7542C3 13.9904 3.47969 11.5754 4.43906 9.50902C5.4114 7.42975 6.80508 5.82832 8.62011 4.70474C10.4351 3.56825 12.5354 3 14.9208 3C18.3564 3 21.1179 3.90403 23.2052 5.71209C25.2924 7.50724 26.4787 9.98686 26.7639 13.151H19.9576C19.9057 11.4333 19.4714 10.2 18.6546 9.4509C17.8379 8.70185 16.5933 8.32732 14.9208 8.32732C13.2225 8.32732 11.9779 8.96014 11.1871 10.2258C10.3962 11.4914 9.98138 13.5126 9.94248 16.2892V18.2846C9.94248 21.2937 10.3185 23.444 11.0704 24.7355C11.8353 26.0269 13.1447 26.6727 14.9986 26.6727C16.5673 26.6727 17.7666 26.3046 18.5963 25.5685C19.426 24.8323 19.8668 23.6635 19.9187 22.0621H26.7056ZM57.8942 18.0908C57.8942 20.8417 57.3821 23.2761 56.358 25.3941C55.3338 27.5121 53.8753 29.1458 51.9824 30.2953C50.1026 31.4318 47.957 32 45.5456 32C43.1342 32 40.995 31.4511 39.1281 30.3534C37.2613 29.2427 35.8028 27.6607 34.7526 25.6072C33.7155 23.5538 33.171 21.1968 33.1191 18.5364V16.9479C33.1191 14.1841 33.6247 11.7497 34.636 9.64462C35.6601 7.52661 37.1186 5.8929 39.0115 4.74349C40.9172 3.59408 43.0823 3.01937 45.5067 3.01937C47.9051 3.01937 50.0442 3.58762 51.9241 4.72411C53.8039 5.86061 55.2625 7.48141 56.2996 9.58651C57.3497 11.6787 57.8813 14.0808 57.8942 16.7929V18.0908ZM50.9518 16.9092C50.9518 14.1067 50.4786 11.9822 49.5321 10.5357C48.5987 9.07637 47.2569 8.34669 45.5067 8.34669C42.084 8.34669 40.2755 10.9038 40.081 16.018L40.0616 18.0908C40.0616 20.8546 40.5218 22.9791 41.4423 24.4643C42.3628 25.9495 43.7305 26.692 45.5456 26.692C47.2698 26.692 48.5987 25.9624 49.5321 24.503C50.4656 23.0436 50.9388 20.945 50.9518 18.2071V16.9092ZM89.044 31.6126H82.2571L72.2226 14.0615V31.6126H65.3968V3.40681H72.2226L82.2377 20.9579V3.40681H89.044V31.6126ZM118.988 8.65665H110.49V31.6126H103.664V8.65665H95.3214V3.40681H118.988V8.65665ZM139.617 26.3434H130.263L128.63 31.6126H121.337L131.722 3.40681H138.139L148.602 31.6126H141.27L139.617 26.3434ZM131.897 21.0935H137.984L134.931 11.3106L131.897 21.0935ZM177.146 22.0621C177.055 24.0252 176.523 25.7622 175.551 27.2732C174.579 28.7713 173.211 29.9336 171.448 30.7602C169.697 31.5867 167.694 32 165.439 32C161.718 32 158.788 30.7925 156.649 28.3774C154.51 25.9624 153.44 22.5529 153.44 18.149V16.7542C153.44 13.9904 153.92 11.5754 154.879 9.50902C155.851 7.42975 157.245 5.82832 159.06 4.70474C160.875 3.56825 162.975 3 165.361 3C168.796 3 171.558 3.90403 173.645 5.71209C175.732 7.50724 176.919 9.98686 177.204 13.151H170.398C170.346 11.4333 169.911 10.2 169.095 9.4509C168.278 8.70185 167.033 8.32732 165.361 8.32732C163.662 8.32732 162.418 8.96014 161.627 10.2258C160.836 11.4914 160.421 13.5126 160.382 16.2892V18.2846C160.382 21.2937 160.758 23.444 161.51 24.7355C162.275 26.0269 163.585 26.6727 165.439 26.6727C167.007 26.6727 168.207 26.3046 169.036 25.5685C169.866 24.8323 170.307 23.6635 170.359 22.0621H177.146ZM206.001 8.65665H197.502V31.6126H190.677V8.65665H182.334V3.40681H206.001V8.65665ZM227.174 24.1156C227.174 23.1211 226.818 22.3462 226.105 21.7909C225.405 21.2356 224.166 20.6609 222.39 20.0668C220.614 19.4727 219.162 18.898 218.034 18.3427C214.365 16.5475 212.531 14.0808 212.531 10.9426C212.531 9.37987 212.985 8.00445 213.892 6.8163C214.813 5.61523 216.109 4.68537 217.781 4.02672C219.454 3.35515 221.334 3.01937 223.421 3.01937C225.456 3.01937 227.278 3.38098 228.886 4.10421C230.506 4.82743 231.764 5.86061 232.658 7.20374C233.553 8.53396 234 10.0579 234 11.7756H227.194C227.194 10.6261 226.837 9.73503 226.124 9.1022C225.424 8.46938 224.471 8.15297 223.265 8.15297C222.047 8.15297 221.081 8.42418 220.368 8.9666C219.668 9.4961 219.318 10.1741 219.318 11.0007C219.318 11.7239 219.707 12.3825 220.485 12.9766C221.262 13.5578 222.63 14.1648 224.588 14.7976C226.545 15.4175 228.153 16.0891 229.411 16.8123C232.47 18.5687 234 20.9902 234 24.0768C234 26.5435 233.067 28.4807 231.2 29.8884C229.333 31.2961 226.772 32 223.518 32C221.223 32 219.143 31.5932 217.276 30.7796C215.422 29.953 214.022 28.8294 213.075 27.4088C212.142 25.9753 211.675 24.3287 211.675 22.4689H218.52C218.52 23.98 218.909 25.0971 219.687 25.8203C220.478 26.5306 221.755 26.8858 223.518 26.8858C224.646 26.8858 225.534 26.6468 226.182 26.169C226.844 25.6782 227.174 24.9938 227.174 24.1156Z" stroke="#FBEC5D" stroke-width="6" mask="url(#path-1-outside-1_821_6)"/>
</svg>
