<svg width="199" height="31" viewBox="0 0 199 31" fill="none" xmlns="http://www.w3.org/2000/svg">
<mask id="path-1-outside-1" maskUnits="userSpaceOnUse" x="0" y="0" width="199" height="31" fill="black">
<rect fill="white" width="199" height="31"/>
<path d="M22.806 19.7756C22.7301 21.4001 22.286 22.8377 21.4736 24.0882C20.6613 25.328 19.5185 26.2899 18.0454 26.9739C16.5831 27.658 14.9096 28 13.0248 28C9.91611 28 7.46812 27.0007 5.68087 25.002C3.89362 23.0033 3 20.1817 3 16.5371V15.3828C3 13.0955 3.40078 11.0969 4.20233 9.38677C5.01472 7.666 6.17913 6.34068 7.69559 5.41082C9.21204 4.47027 10.9668 4 12.9598 4C15.8303 4 18.1374 4.74816 19.8814 6.24449C21.6253 7.73013 22.6164 9.78223 22.8547 12.4008H17.168C17.1247 10.9793 16.7618 9.95858 16.0794 9.33868C15.397 8.71877 14.3571 8.40882 12.9598 8.40882C11.5409 8.40882 10.501 8.93253 9.84028 9.97996C9.17954 11.0274 8.83293 12.7001 8.80043 14.998V16.6493C8.80043 19.1396 9.11455 20.9192 9.7428 21.988C10.3819 23.0568 11.4759 23.5912 13.0248 23.5912C14.3355 23.5912 15.3374 23.2866 16.0307 22.6774C16.7239 22.0681 17.0922 21.1009 17.1355 19.7756H22.806ZM48.864 16.489C48.864 18.7655 48.4362 20.7802 47.5805 22.5331C46.7247 24.2859 45.5062 25.6379 43.9247 26.5892C42.3541 27.5297 40.5614 28 38.5467 28C36.532 28 34.7448 27.5458 33.185 26.6373C31.6252 25.7181 30.4066 24.4088 29.5293 22.7094C28.6627 21.01 28.2078 19.0595 28.1644 16.8577V15.5431C28.1644 13.2558 28.5869 11.2411 29.4318 9.499C30.2875 7.74616 31.5061 6.39412 33.0875 5.44289C34.6798 4.49165 36.4887 4.01603 38.5142 4.01603C40.5181 4.01603 42.3054 4.48631 43.876 5.42685C45.4466 6.3674 46.6652 7.70875 47.5317 9.4509C48.4091 11.1824 48.8532 13.1703 48.864 15.4148V16.489ZM43.0636 15.511C43.0636 13.1917 42.6682 11.4335 41.8775 10.2365C41.0976 9.02872 39.9765 8.42485 38.5142 8.42485C35.6546 8.42485 34.1436 10.5411 33.9811 14.7735L33.9649 16.489C33.9649 18.7762 34.3494 20.5344 35.1185 21.7635C35.8875 22.9927 37.0303 23.6072 38.5467 23.6072C39.9874 23.6072 41.0976 23.0033 41.8775 21.7956C42.6574 20.5878 43.0528 18.851 43.0636 16.5852V15.511ZM74.8896 27.6794H69.2191L60.8353 13.1543V27.6794H55.1324V4.33667H60.8353L69.2029 18.8617V4.33667H74.8896V27.6794ZM99.9078 8.68136H92.8076V27.6794H87.1046V8.68136H80.1344V4.33667H99.9078V8.68136ZM117.143 23.3186H109.328L107.963 27.6794H101.871L110.547 4.33667H115.909L124.65 27.6794H118.524L117.143 23.3186ZM110.693 18.9739H115.779L113.228 10.8778L110.693 18.9739ZM148.498 19.7756C148.422 21.4001 147.978 22.8377 147.166 24.0882C146.354 25.328 145.211 26.2899 143.738 26.9739C142.275 27.658 140.602 28 138.717 28C135.608 28 133.16 27.0007 131.373 25.002C129.586 23.0033 128.692 20.1817 128.692 16.5371V15.3828C128.692 13.0955 129.093 11.0969 129.895 9.38677C130.707 7.666 131.871 6.34068 133.388 5.41082C134.904 4.47027 136.659 4 138.652 4C141.523 4 143.83 4.74816 145.574 6.24449C147.318 7.73013 148.309 9.78223 148.547 12.4008H142.86C142.817 10.9793 142.454 9.95858 141.772 9.33868C141.089 8.71877 140.049 8.40882 138.652 8.40882C137.233 8.40882 136.193 8.93253 135.533 9.97996C134.872 11.0274 134.525 12.7001 134.493 14.998V16.6493C134.493 19.1396 134.807 20.9192 135.435 21.988C136.074 23.0568 137.168 23.5912 138.717 23.5912C140.028 23.5912 141.03 23.2866 141.723 22.6774C142.416 22.0681 142.784 21.1009 142.828 19.7756H148.498ZM172.607 8.68136H165.506V27.6794H159.803V8.68136H152.833V4.33667H172.607V8.68136ZM190.297 21.475C190.297 20.652 189.999 20.0107 189.403 19.5511C188.819 19.0915 187.784 18.6159 186.3 18.1242C184.816 17.6326 183.603 17.157 182.661 16.6974C179.595 15.2118 178.063 13.1703 178.063 10.5731C178.063 9.27989 178.442 8.14162 179.2 7.15832C179.969 6.16433 181.052 5.39479 182.449 4.8497C183.847 4.29392 185.417 4.01603 187.161 4.01603C188.862 4.01603 190.384 4.3153 191.727 4.91383C193.081 5.51236 194.132 6.3674 194.879 7.47896C195.626 8.57983 196 9.84102 196 11.2625H190.313C190.313 10.3113 190.015 9.57381 189.42 9.0501C188.835 8.52639 188.039 8.26453 187.031 8.26453C186.013 8.26453 185.206 8.48898 184.61 8.93788C184.025 9.37609 183.733 9.93721 183.733 10.6212C183.733 11.2198 184.058 11.7649 184.708 12.2565C185.358 12.7375 186.501 13.2398 188.136 13.7635C189.772 14.2766 191.115 14.8323 192.166 15.4309C194.722 16.8844 196 18.8884 196 21.4429C196 23.4843 195.22 25.0875 193.66 26.2525C192.101 27.4175 189.961 28 187.242 28C185.325 28 183.587 27.6633 182.027 26.99C180.478 26.3059 179.308 25.3761 178.517 24.2004C177.738 23.014 177.348 21.6513 177.348 20.1122H183.067C183.067 21.3627 183.392 22.2872 184.042 22.8858C184.702 23.4736 185.769 23.7675 187.242 23.7675C188.185 23.7675 188.927 23.5698 189.468 23.1743C190.021 22.7682 190.297 22.2017 190.297 21.475Z"/>
</mask>
<path d="M22.806 19.7756C22.7301 21.4001 22.286 22.8377 21.4736 24.0882C20.6613 25.328 19.5185 26.2899 18.0454 26.9739C16.5831 27.658 14.9096 28 13.0248 28C9.91611 28 7.46812 27.0007 5.68087 25.002C3.89362 23.0033 3 20.1817 3 16.5371V15.3828C3 13.0955 3.40078 11.0969 4.20233 9.38677C5.01472 7.666 6.17913 6.34068 7.69559 5.41082C9.21204 4.47027 10.9668 4 12.9598 4C15.8303 4 18.1374 4.74816 19.8814 6.24449C21.6253 7.73013 22.6164 9.78223 22.8547 12.4008H17.168C17.1247 10.9793 16.7618 9.95858 16.0794 9.33868C15.397 8.71877 14.3571 8.40882 12.9598 8.40882C11.5409 8.40882 10.501 8.93253 9.84028 9.97996C9.17954 11.0274 8.83293 12.7001 8.80043 14.998V16.6493C8.80043 19.1396 9.11455 20.9192 9.7428 21.988C10.3819 23.0568 11.4759 23.5912 13.0248 23.5912C14.3355 23.5912 15.3374 23.2866 16.0307 22.6774C16.7239 22.0681 17.0922 21.1009 17.1355 19.7756H22.806ZM48.864 16.489C48.864 18.7655 48.4362 20.7802 47.5805 22.5331C46.7247 24.2859 45.5062 25.6379 43.9247 26.5892C42.3541 27.5297 40.5614 28 38.5467 28C36.532 28 34.7448 27.5458 33.185 26.6373C31.6252 25.7181 30.4066 24.4088 29.5293 22.7094C28.6627 21.01 28.2078 19.0595 28.1644 16.8577V15.5431C28.1644 13.2558 28.5869 11.2411 29.4318 9.499C30.2875 7.74616 31.5061 6.39412 33.0875 5.44289C34.6798 4.49165 36.4887 4.01603 38.5142 4.01603C40.5181 4.01603 42.3054 4.48631 43.876 5.42685C45.4466 6.3674 46.6652 7.70875 47.5317 9.4509C48.4091 11.1824 48.8532 13.1703 48.864 15.4148V16.489ZM43.0636 15.511C43.0636 13.1917 42.6682 11.4335 41.8775 10.2365C41.0976 9.02872 39.9765 8.42485 38.5142 8.42485C35.6546 8.42485 34.1436 10.5411 33.9811 14.7735L33.9649 16.489C33.9649 18.7762 34.3494 20.5344 35.1185 21.7635C35.8875 22.9927 37.0303 23.6072 38.5467 23.6072C39.9874 23.6072 41.0976 23.0033 41.8775 21.7956C42.6574 20.5878 43.0528 18.851 43.0636 16.5852V15.511ZM74.8896 27.6794H69.2191L60.8353 13.1543V27.6794H55.1324V4.33667H60.8353L69.2029 18.8617V4.33667H74.8896V27.6794ZM99.9078 8.68136H92.8076V27.6794H87.1046V8.68136H80.1344V4.33667H99.9078V8.68136ZM117.143 23.3186H109.328L107.963 27.6794H101.871L110.547 4.33667H115.909L124.65 27.6794H118.524L117.143 23.3186ZM110.693 18.9739H115.779L113.228 10.8778L110.693 18.9739ZM148.498 19.7756C148.422 21.4001 147.978 22.8377 147.166 24.0882C146.354 25.328 145.211 26.2899 143.738 26.9739C142.275 27.658 140.602 28 138.717 28C135.608 28 133.16 27.0007 131.373 25.002C129.586 23.0033 128.692 20.1817 128.692 16.5371V15.3828C128.692 13.0955 129.093 11.0969 129.895 9.38677C130.707 7.666 131.871 6.34068 133.388 5.41082C134.904 4.47027 136.659 4 138.652 4C141.523 4 143.83 4.74816 145.574 6.24449C147.318 7.73013 148.309 9.78223 148.547 12.4008H142.86C142.817 10.9793 142.454 9.95858 141.772 9.33868C141.089 8.71877 140.049 8.40882 138.652 8.40882C137.233 8.40882 136.193 8.93253 135.533 9.97996C134.872 11.0274 134.525 12.7001 134.493 14.998V16.6493C134.493 19.1396 134.807 20.9192 135.435 21.988C136.074 23.0568 137.168 23.5912 138.717 23.5912C140.028 23.5912 141.03 23.2866 141.723 22.6774C142.416 22.0681 142.784 21.1009 142.828 19.7756H148.498ZM172.607 8.68136H165.506V27.6794H159.803V8.68136H152.833V4.33667H172.607V8.68136ZM190.297 21.475C190.297 20.652 189.999 20.0107 189.403 19.5511C188.819 19.0915 187.784 18.6159 186.3 18.1242C184.816 17.6326 183.603 17.157 182.661 16.6974C179.595 15.2118 178.063 13.1703 178.063 10.5731C178.063 9.27989 178.442 8.14162 179.2 7.15832C179.969 6.16433 181.052 5.39479 182.449 4.8497C183.847 4.29392 185.417 4.01603 187.161 4.01603C188.862 4.01603 190.384 4.3153 191.727 4.91383C193.081 5.51236 194.132 6.3674 194.879 7.47896C195.626 8.57983 196 9.84102 196 11.2625H190.313C190.313 10.3113 190.015 9.57381 189.42 9.0501C188.835 8.52639 188.039 8.26453 187.031 8.26453C186.013 8.26453 185.206 8.48898 184.61 8.93788C184.025 9.37609 183.733 9.93721 183.733 10.6212C183.733 11.2198 184.058 11.7649 184.708 12.2565C185.358 12.7375 186.501 13.2398 188.136 13.7635C189.772 14.2766 191.115 14.8323 192.166 15.4309C194.722 16.8844 196 18.8884 196 21.4429C196 23.4843 195.22 25.0875 193.66 26.2525C192.101 27.4175 189.961 28 187.242 28C185.325 28 183.587 27.6633 182.027 26.99C180.478 26.3059 179.308 25.3761 178.517 24.2004C177.738 23.014 177.348 21.6513 177.348 20.1122H183.067C183.067 21.3627 183.392 22.2872 184.042 22.8858C184.702 23.4736 185.769 23.7675 187.242 23.7675C188.185 23.7675 188.927 23.5698 189.468 23.1743C190.021 22.7682 190.297 22.2017 190.297 21.475Z" stroke="#F5F5F5" stroke-width="6" mask="url(#path-1-outside-1)"/>
</svg>
