<svg width="231" height="29" viewBox="0 0 231 29" fill="none" xmlns="http://www.w3.org/2000/svg">
<g filter="url(#filter0_i_10_1105)">
<path d="M23.7056 19.0621C23.6148 21.0252 23.0833 22.7622 22.1109 24.2732C21.1386 25.7713 19.7708 26.9336 18.0077 27.7602C16.2575 28.5867 14.2545 29 11.9986 29C8.27783 29 5.34785 27.7925 3.20871 25.3774C1.06957 22.9624 0 19.5529 0 15.149V13.7542C0 10.9904 0.479686 8.57537 1.43906 6.50902C2.4114 4.42975 3.80508 2.82832 5.62011 1.70474C7.43514 0.568248 9.53538 0 11.9208 0C15.3564 0 18.1179 0.90403 20.2052 2.71209C22.2924 4.50724 23.4787 6.98686 23.7639 10.151H16.9576C16.9057 8.43331 16.4714 7.19995 15.6546 6.4509C14.8379 5.70185 13.5933 5.32732 11.9208 5.32732C10.2225 5.32732 8.97791 5.96014 8.18708 7.22578C7.39624 8.49143 6.98138 10.5126 6.94248 13.2892V15.2846C6.94248 18.2937 7.31846 20.444 8.0704 21.7355C8.8353 23.0269 10.1447 23.6727 11.9986 23.6727C13.5673 23.6727 14.7666 23.3046 15.5963 22.5685C16.426 21.8323 16.8668 20.6635 16.9187 19.0621H23.7056ZM54.8942 15.0908C54.8942 17.8417 54.3821 20.2761 53.358 22.3941C52.3338 24.5121 50.8753 26.1458 48.9824 27.2953C47.1026 28.4318 44.957 29 42.5456 29C40.1342 29 37.995 28.4511 36.1281 27.3534C34.2613 26.2427 32.8028 24.6607 31.7526 22.6072C30.7155 20.5538 30.171 18.1968 30.1191 15.5364V13.9479C30.1191 11.1841 30.6247 8.74972 31.636 6.64462C32.6601 4.52661 34.1186 2.8929 36.0115 1.74349C37.9172 0.594077 40.0823 0.0193721 42.5067 0.0193721C44.9051 0.0193721 47.0442 0.58762 48.9241 1.72411C50.8039 2.86061 52.2625 4.48141 53.2996 6.58651C54.3497 8.67869 54.8813 11.0808 54.8942 13.7929V15.0908ZM47.9518 13.9092C47.9518 11.1067 47.4786 8.98219 46.5322 7.53574C45.5987 6.07637 44.2569 5.34669 42.5067 5.34669C39.084 5.34669 37.2755 7.90381 37.081 13.018L37.0616 15.0908C37.0616 17.8546 37.5218 19.9791 38.4423 21.4643C39.3628 22.9495 40.7305 23.692 42.5456 23.692C44.2698 23.692 45.5987 22.9624 46.5322 21.503C47.4656 20.0436 47.9388 17.945 47.9518 15.2071V13.9092ZM86.044 28.6126H79.2571L69.2226 11.0615V28.6126H62.3968V0.406814H69.2226L79.2377 17.9579V0.406814H86.044V28.6126ZM115.988 5.65665H107.49V28.6126H100.664V5.65665H92.3214V0.406814H115.988V5.65665ZM136.617 23.3434H127.263L125.63 28.6126H118.337L128.722 0.406814H135.139L145.602 28.6126H138.27L136.617 23.3434ZM128.897 18.0935H134.984L131.931 8.31062L128.897 18.0935ZM174.146 19.0621C174.055 21.0252 173.523 22.7622 172.551 24.2732C171.579 25.7713 170.211 26.9336 168.448 27.7602C166.697 28.5867 164.694 29 162.439 29C158.718 29 155.788 27.7925 153.649 25.3774C151.51 22.9624 150.44 19.5529 150.44 15.149V13.7542C150.44 10.9904 150.92 8.57537 151.879 6.50902C152.851 4.42975 154.245 2.82832 156.06 1.70474C157.875 0.568248 159.975 0 162.361 0C165.796 0 168.558 0.90403 170.645 2.71209C172.732 4.50724 173.919 6.98686 174.204 10.151H167.398C167.346 8.43331 166.911 7.19995 166.095 6.4509C165.278 5.70185 164.033 5.32732 162.361 5.32732C160.662 5.32732 159.418 5.96014 158.627 7.22578C157.836 8.49143 157.421 10.5126 157.382 13.2892V15.2846C157.382 18.2937 157.758 20.444 158.51 21.7355C159.275 23.0269 160.585 23.6727 162.439 23.6727C164.007 23.6727 165.207 23.3046 166.036 22.5685C166.866 21.8323 167.307 20.6635 167.359 19.0621H174.146ZM203.001 5.65665H194.502V28.6126H187.677V5.65665H179.334V0.406814H203.001V5.65665ZM224.174 21.1156C224.174 20.1211 223.818 19.3462 223.105 18.7909C222.405 18.2356 221.166 17.6609 219.39 17.0668C217.614 16.4727 216.162 15.898 215.034 15.3427C211.365 13.5475 209.531 11.0808 209.531 7.94255C209.531 6.37987 209.985 5.00445 210.892 3.8163C211.813 2.61523 213.109 1.68537 214.781 1.02672C216.454 0.355155 218.334 0.0193721 220.421 0.0193721C222.456 0.0193721 224.278 0.380984 225.885 1.10421C227.506 1.82743 228.764 2.86061 229.658 4.20374C230.553 5.53396 231 7.05789 231 8.77555H224.194C224.194 7.62614 223.837 6.73503 223.124 6.1022C222.424 5.46938 221.471 5.15297 220.265 5.15297C219.047 5.15297 218.081 5.42418 217.368 5.9666C216.668 6.4961 216.318 7.17413 216.318 8.00067C216.318 8.72389 216.707 9.38254 217.485 9.97662C218.262 10.5578 219.63 11.1648 221.588 11.7976C223.545 12.4175 225.153 13.0891 226.411 13.8123C229.47 15.5687 231 17.9902 231 21.0768C231 23.5435 230.067 25.4807 228.2 26.8884C226.333 28.2961 223.772 29 220.518 29C218.223 29 216.143 28.5932 214.276 27.7796C212.422 26.953 211.022 25.8294 210.075 24.4088C209.142 22.9753 208.675 21.3287 208.675 19.4689H215.52C215.52 20.98 215.909 22.0971 216.687 22.8203C217.478 23.5306 218.755 23.8858 220.518 23.8858C221.646 23.8858 222.534 23.6468 223.182 23.169C223.844 22.6782 224.174 21.9938 224.174 21.1156Z" fill="#F5F5F5"/>
</g>
<defs>
<filter id="filter0_i_10_1105" x="0" y="0" width="231" height="34" filterUnits="userSpaceOnUse" color-interpolation-filters="sRGB">
<feFlood flood-opacity="0" result="BackgroundImageFix"/>
<feBlend mode="normal" in="SourceGraphic" in2="BackgroundImageFix" result="shape"/>
<feColorMatrix in="SourceAlpha" type="matrix" values="0 0 0 0 0 0 0 0 0 0 0 0 0 0 0 0 0 0 127 0" result="hardAlpha"/>
<feOffset dy="5"/>
<feGaussianBlur stdDeviation="2.5"/>
<feComposite in2="hardAlpha" operator="arithmetic" k2="-1" k3="1"/>
<feColorMatrix type="matrix" values="0 0 0 0 0.984314 0 0 0 0 0.92549 0 0 0 0 0.364706 0 0 0 1 0"/>
<feBlend mode="normal" in2="shape" result="effect1_innerShadow_10_1105"/>
</filter>
</defs>
</svg>
