<svg width="55" height="30" viewBox="0 0 55 30" fill="none" xmlns="http://www.w3.org/2000/svg">
<path d="M24.4753 5.8517H15.6867V29.5992H8.62769V5.8517H0V0.420842H24.4753V5.8517Z" fill="#F5F5F5"/>
<path d="M55 25.992C53.914 27.1944 52.3252 28.163 50.2337 28.8978C48.1421 29.6326 45.8494 30 43.3556 30C39.5211 30 36.4575 28.831 34.1648 26.493C31.8722 24.155 30.6454 20.9018 30.4845 16.7335L30.4644 14.2084C30.4644 11.336 30.9739 8.831 31.9928 6.69339C33.0118 4.54242 34.4665 2.89245 36.357 1.74349C38.2608 0.581162 40.4596 0 42.9534 0C46.6002 0 49.4292 0.835003 51.4403 2.50501C53.4648 4.16166 54.6447 6.63995 54.9799 9.93988H48.1823C47.941 8.30995 47.4181 7.14763 46.6136 6.45291C45.8092 5.75818 44.6696 5.41082 43.1947 5.41082C41.425 5.41082 40.0574 6.15898 39.0921 7.65531C38.1267 9.15164 37.6374 11.2892 37.624 14.0681V15.8317C37.624 18.7442 38.12 20.9352 39.1122 22.4048C40.1177 23.8611 41.6931 24.5892 43.8383 24.5892C45.6751 24.5892 47.0427 24.1817 47.941 23.3667V18.8377H43.0339V14.008H55V25.992Z" fill="#F5F5F5"/>
</svg>
