<svg width="52" height="31" viewBox="0 0 52 31" fill="none" xmlns="http://www.w3.org/2000/svg">
<path d="M23.0252 9.37642H24.5252V7.87642V3.3507V1.8507H23.0252H3H1.5V3.3507V7.87642V9.37642H3H8.55902V27.666V29.166H10.059H15.8346H17.3346V27.666V9.37642H23.0252ZM49.1223 25.6552L49.5 25.2293V24.66V14.6733V13.1733H48H38.2095H36.7095V14.6733V18.6981V20.1981H38.2095H40.7244V21.6796C40.3229 21.8605 39.7321 21.991 38.8677 21.991C37.5016 21.991 36.733 21.5484 36.2468 20.8354C35.6751 19.9683 35.2832 18.4928 35.2832 16.1931V14.7274C35.2939 12.5483 35.6758 11.0912 36.2516 10.1821C36.7729 9.35911 37.4191 9.00902 38.3412 9.00902C39.3208 9.00902 39.8516 9.2432 40.1478 9.50372C40.4233 9.74612 40.7638 10.304 40.9375 11.499L41.1242 12.7832H42.4219H47.9835H49.6406L49.4761 11.1344C49.1746 8.11022 48.0864 5.63625 46.0519 3.93856C44.0479 2.24589 41.3442 1.5 38.1437 1.5C35.8563 1.5 33.7771 2.04616 31.9558 3.17829C30.1397 4.30286 28.7622 5.91115 27.8165 7.9438C26.8723 9.96216 26.4254 12.2745 26.4254 14.8403H26.4254L26.4255 14.8521L26.4419 16.9563L26.4421 16.9788L26.4429 17.0014C26.5844 20.735 27.675 23.8354 29.8725 26.1178C32.0768 28.4074 34.9988 29.5 38.4728 29.5C40.6645 29.5 42.7136 29.1708 44.6056 28.4938C46.4732 27.8255 48.0173 26.9013 49.1223 25.6552Z" stroke="#FBEC5D" stroke-width="3"/>
</svg>
