<svg width="70" height="36" viewBox="0 0 70 36" fill="none" xmlns="http://www.w3.org/2000/svg">
<mask id="path-1-outside-1_8_115" maskUnits="userSpaceOnUse" x="0" y="0" width="70" height="36" fill="black">
<rect fill="white" width="70" height="36"/>
<path d="M18.5937 24.1126L24.4082 3H32.2677L22.4433 32H14.7442L5 3H12.7994L18.5937 24.1126Z"/>
<path d="M48.4439 21.2047L45.5567 24.3516V32H38.5192V3H45.5567V15.7871L48.0028 12.1023L54.2984 3H63L53.1355 15.8269L63 32H54.6593L48.4439 21.2047Z"/>
</mask>
<path d="M18.5937 24.1126L24.4082 3H32.2677L22.4433 32H14.7442L5 3H12.7994L18.5937 24.1126Z" stroke="#F5F5F5" stroke-width="6" mask="url(#path-1-outside-1_8_115)"/>
<path d="M48.4439 21.2047L45.5567 24.3516V32H38.5192V3H45.5567V15.7871L48.0028 12.1023L54.2984 3H63L53.1355 15.8269L63 32H54.6593L48.4439 21.2047Z" stroke="#F5F5F5" stroke-width="6" mask="url(#path-1-outside-1_8_115)"/>
</svg>
